<svg version="1.1" xmlns="http://www.w3.org/2000/svg" viewBox="0 0 154 159" width="154" height="159">
  <!-- svg-source:excalidraw -->
  
  <defs>
    <style class="style-fonts">
      @font-face {
        font-family: "Virgil";
        src: url("https://unpkg.com/@excalidraw/excalidraw@undefined/dist/excalidraw-assets/Virgil.woff2");
      }
      @font-face {
        font-family: "Cascadia";
        src: url("https://unpkg.com/@excalidraw/excalidraw@undefined/dist/excalidraw-assets/Cascadia.woff2");
      }
      @font-face {
        font-family: "Assistant";
        src: url("https://unpkg.com/@excalidraw/excalidraw@undefined/dist/excalidraw-assets/Assistant-Regular.woff2");
      }
    </style>
    
  </defs>
  <rect x="0" y="0" width="154" height="159" fill="transparent"></rect><g stroke-linecap="round" transform="translate(10 10) rotate(0 67 69.5)"><path d="M32 0 C58.84 0.44, 84.67 0.79, 102 0 M32 0 C59.77 -0.87, 87.74 -0.19, 102 0 M102 0 C122.22 -0.1, 132.7 12.02, 134 32 M102 0 C125.56 0.83, 132.38 10.5, 134 32 M134 32 C135.63 47.77, 132.61 67.58, 134 107 M134 32 C135.09 61.21, 134.46 91.48, 134 107 M134 107 C133.74 128.43, 122.34 139.99, 102 139 M134 107 C131.88 127.85, 125.49 140.65, 102 139 M102 139 C78.28 137.69, 55.59 139.01, 32 139 M102 139 C83.29 138.32, 64.74 139.52, 32 139 M32 139 C12.02 138.48, -0.18 126.35, 0 107 M32 139 C9.64 140.19, -0.97 126.29, 0 107 M0 107 C2.18 82.21, 1.85 54.31, 0 32 M0 107 C-0.88 85.29, -0.97 64.31, 0 32 M0 32 C0.27 9.44, 10.61 0.09, 32 0 M0 32 C-2.27 8.87, 11 -2.16, 32 0" stroke="#1e1e1e" stroke-width="2" fill="none"></path></g><g transform="translate(33.724998474121094 34.5) rotate(0 43.275001525878906 45)"><text x="43.275001525878906" y="0" font-family="Virgil, Segoe UI Emoji" font-size="36px" fill="#1e1e1e" text-anchor="middle" style="white-space: pre;" direction="ltr" dominant-baseline="text-before-edge">Docu</text><text x="43.275001525878906" y="45" font-family="Virgil, Segoe UI Emoji" font-size="36px" fill="#1e1e1e" text-anchor="middle" style="white-space: pre;" direction="ltr" dominant-baseline="text-before-edge">Chat</text></g></svg>